<svg width="40" height="40" viewBox="0 0 40 40" fill="none" xmlns="http://www.w3.org/2000/svg">
<path d="M7.2339 11.1873L10.035 12.6126C10.5506 12.8418 11.1117 12.9451 11.6735 12.9142C12.2352 12.8832 12.7821 12.719 13.2703 12.4345L15.9174 10.6814C16.3729 10.3449 16.7436 9.90345 16.9992 9.39313C17.2548 8.8828 17.3881 8.31811 17.388 7.74528L17.22 4.53127C17.1586 3.96308 16.967 3.4174 16.6605 2.93837C16.3539 2.45933 15.9411 2.06025 15.4552 1.77334L12.6541 0.312421C12.1395 0.0805269 11.5784 -0.0248013 11.0164 0.00491588C10.4543 0.0346331 9.90701 0.19854 9.41877 0.483455L6.77178 2.23656C6.31709 2.57385 5.94692 3.01547 5.69146 3.52565C5.43593 4.03576 5.30218 4.60011 5.30113 5.17264L5.46919 8.38666C5.5236 8.96262 5.71205 9.51706 6.01891 10.0041C6.32577 10.4912 6.7423 10.8968 7.2339 11.1873Z" fill="url(#paint0_radial_302_328)"/>
<path d="M24.1316 15.3493L21.3305 13.8883C20.8161 13.6592 20.2562 13.556 19.6955 13.587C19.1349 13.6179 18.5892 13.7822 18.1022 14.0665L15.4271 15.8196C14.9741 16.1585 14.6051 16.6004 14.3498 17.1103C14.0945 17.62 13.9597 18.1835 13.9565 18.7557L14.1247 21.9697C14.1859 22.538 14.3775 23.0836 14.684 23.5627C14.9906 24.0417 15.4034 24.4408 15.8893 24.7276L18.6904 26.1529C19.2039 26.3847 19.7637 26.4901 20.3247 26.4604C20.8856 26.4307 21.4317 26.2667 21.9187 25.9819L24.5728 24.2288C25.026 23.8884 25.3949 23.4452 25.6501 22.9342C25.9055 22.4233 26.0401 21.8587 26.0433 21.2856L25.8753 18.0787C25.8111 17.5178 25.6202 16.9795 25.3178 16.506C25.0153 16.0325 24.6093 15.6367 24.1316 15.3493Z" fill="url(#paint1_radial_302_328)"/>
<path d="M32.7731 28.9038L29.972 27.4785C29.4573 27.2465 28.8964 27.1412 28.3343 27.1709C27.7723 27.2006 27.2249 27.3645 26.7367 27.6495L24.0897 29.4026C23.6358 29.7406 23.2662 30.1825 23.0108 30.6924C22.7554 31.2024 22.6212 31.7663 22.619 32.3387L22.7872 35.5527C22.8542 36.1118 23.0471 36.6476 23.3507 37.1185C23.6543 37.5894 24.0606 37.9827 24.5379 38.2679L27.339 39.6932C27.8545 39.9223 28.4156 40.0256 28.9774 39.9946C29.5391 39.9637 30.086 39.7995 30.5743 39.515L33.2283 37.7619C33.6817 37.4239 34.0505 36.9819 34.3048 36.4718C34.559 35.9617 34.6917 35.3978 34.6919 34.8258L34.5448 31.6688C34.4844 31.0985 34.2924 30.5508 33.9845 30.0702C33.6767 29.5898 33.2615 29.1901 32.7731 28.9038Z" fill="url(#paint2_radial_302_328)"/>
<path d="M12.1359 20.922L12.0028 18.4207C12.006 17.8485 12.1407 17.285 12.3961 16.7753C12.6514 16.2654 13.0203 15.8234 13.4734 15.4846L18.6345 12.071C19.1214 11.7867 19.6672 11.6224 20.2278 11.5915C20.7884 11.5606 21.3484 11.6638 21.8627 11.8929L24.0616 13.0331C24.5763 13.265 25.1373 13.3704 25.6993 13.3407C26.2614 13.311 26.8087 13.147 27.2969 12.8621L29.944 11.1018C30.3983 10.7642 30.7681 10.3225 31.0235 9.81238C31.279 9.30234 31.413 8.73828 31.4146 8.16574L31.2465 4.95885C31.1863 4.38938 30.9951 3.84228 30.6885 3.36196C30.3819 2.88157 29.9686 2.48142 29.4818 2.1938L26.6807 0.73288C26.1651 0.503766 25.6041 0.400504 25.0422 0.431432C24.4805 0.462361 23.9336 0.626625 23.4454 0.911041L20.7423 2.63564C20.2889 2.97371 19.9201 3.41569 19.6658 3.9258C19.4116 4.43591 19.2789 4.99976 19.2787 5.57172L19.4048 8.0731C19.4046 8.64514 19.2718 9.20898 19.0176 9.71909C18.7633 10.2292 18.3945 10.6712 17.9412 11.0092L12.7801 14.4227C12.2919 14.7077 11.7446 14.8716 11.1826 14.9014C10.6204 14.9311 10.0595 14.8257 9.54482 14.5938L7.35294 13.4607C6.83831 13.2288 6.27731 13.1235 5.7152 13.1532C5.15315 13.1829 4.60588 13.3468 4.11765 13.6317L1.47059 15.3848C1.0159 15.7221 0.645799 16.1637 0.390267 16.6739C0.134734 17.1841 0.00105042 17.7484 0 18.3209L0.168066 21.5349C0.22773 22.1046 0.418696 22.6519 0.725279 23.1324C1.03193 23.6128 1.44559 24.0128 1.93277 24.3L4.73389 25.7253C5.24944 25.9544 5.8105 26.0577 6.37227 26.0268C6.93403 25.9958 7.48095 25.8316 7.96919 25.5471L10.6162 23.794C11.0711 23.4681 11.4452 23.039 11.709 22.5405C11.9727 22.042 12.1188 21.488 12.1359 20.922Z" fill="url(#paint3_radial_302_328)"/>
<path d="M39.86 18.5135C39.7976 17.9446 39.6056 17.3984 39.2992 16.9183C38.9929 16.4383 38.5806 16.0377 38.0953 15.7484L35.2942 14.3231C34.7785 14.0945 34.2174 13.9915 33.6558 14.0225C33.0941 14.0534 32.5473 14.2174 32.0589 14.5013L29.4118 16.2544C28.9579 16.5925 28.5884 17.0342 28.333 17.5442C28.0776 18.0542 27.9434 18.6181 27.9413 19.1905L28.0743 21.699C28.0721 22.2713 27.938 22.8352 27.6825 23.3452C27.4271 23.8551 27.0576 24.297 26.6036 24.6351L21.4496 28.0415C20.9613 28.3259 20.4145 28.4902 19.8527 28.5211C19.291 28.552 18.7299 28.4488 18.2143 28.2196L16.0154 27.0794C15.5011 26.8503 14.9411 26.747 14.3805 26.778C13.8198 26.809 13.2742 26.9732 12.7871 27.2576L10.112 29.0036C9.65904 29.3424 9.29013 29.7843 9.03474 30.2941C8.77941 30.8039 8.64475 31.3674 8.64153 31.9396L8.80953 35.1536C8.87087 35.7218 9.06247 36.2675 9.36898 36.7466C9.67556 37.2256 10.0884 37.6247 10.5743 37.9116L13.3754 39.3725C13.8888 39.6043 14.4487 39.7097 15.0096 39.6799C15.5706 39.6502 16.1167 39.4862 16.6037 39.2014L19.2577 37.4483C19.7104 37.1091 20.0791 36.667 20.3343 36.1573C20.5896 35.6476 20.7245 35.0843 20.7284 34.5123L20.5953 32.0037C20.5968 31.4312 20.7308 30.8672 20.9863 30.3571C21.2417 29.847 21.6116 29.4053 22.0658 29.0676L27.2199 25.6541C27.7081 25.3692 28.2555 25.2052 28.8175 25.1755C29.3796 25.1458 29.9405 25.2511 30.4552 25.483L32.6471 26.6162C33.1617 26.8481 33.7228 26.9534 34.2848 26.9237C34.8469 26.894 35.3941 26.7301 35.8824 26.4452L38.5365 24.6921C38.9894 24.3536 39.3579 23.9115 39.6121 23.4015C39.8664 22.8915 39.9992 22.3278 40 21.756L39.86 18.5135Z" fill="url(#paint4_radial_302_328)"/>
<defs>
<radialGradient id="paint0_radial_302_328" cx="0" cy="0" r="1" gradientUnits="userSpaceOnUse" gradientTransform="translate(17.5 7.5) rotate(57.9074) scale(34.821)">
<stop stop-color="#6366F1"/>
<stop offset="1" stop-color="#A855F7"/>
</radialGradient>
<radialGradient id="paint1_radial_302_328" cx="0" cy="0" r="1" gradientUnits="userSpaceOnUse" gradientTransform="translate(17.5 7.5) rotate(57.9074) scale(34.821)">
<stop stop-color="#6366F1"/>
<stop offset="1" stop-color="#A855F7"/>
</radialGradient>
<radialGradient id="paint2_radial_302_328" cx="0" cy="0" r="1" gradientUnits="userSpaceOnUse" gradientTransform="translate(17.5 7.5) rotate(57.9074) scale(34.821)">
<stop stop-color="#6366F1"/>
<stop offset="1" stop-color="#A855F7"/>
</radialGradient>
<radialGradient id="paint3_radial_302_328" cx="0" cy="0" r="1" gradientUnits="userSpaceOnUse" gradientTransform="translate(17.5 7.5) rotate(57.9074) scale(34.821)">
<stop stop-color="#6366F1"/>
<stop offset="1" stop-color="#A855F7"/>
</radialGradient>
<radialGradient id="paint4_radial_302_328" cx="0" cy="0" r="1" gradientUnits="userSpaceOnUse" gradientTransform="translate(17.5 7.5) rotate(57.9074) scale(34.821)">
<stop stop-color="#6366F1"/>
<stop offset="1" stop-color="#A855F7"/>
</radialGradient>
</defs>
</svg>
